<svg width="21" height="20" viewBox="0 0 21 20" fill="none" xmlns="http://www.w3.org/2000/svg">
<path d="M6.66494 4.99989C7.0605 4.99989 7.44718 4.88259 7.77608 4.66283C8.10498 4.44306 8.36132 4.13071 8.5127 3.76525C8.66407 3.3998 8.70368 2.99767 8.62651 2.60971C8.54934 2.22174 8.35886 1.86538 8.07915 1.58567C7.79945 1.30597 7.44308 1.11549 7.05512 1.03832C6.66716 0.961145 6.26503 1.00075 5.89957 1.15213C5.53412 1.3035 5.22176 1.55985 5.002 1.88875C4.78224 2.21764 4.66494 2.60432 4.66494 2.99989C4.66494 3.53032 4.87565 4.03903 5.25073 4.4141C5.6258 4.78917 6.13451 4.99989 6.66494 4.99989ZM20.0749 2.58989L18.0749 0.589886C17.7002 0.217384 17.1933 0.00830078 16.6649 0.00830078C16.1366 0.00830078 15.6297 0.217384 15.2549 0.589886L5.25494 10.5899C4.87935 10.9632 4.66717 11.4703 4.66494 11.9999V13.9999C4.66717 14.1721 4.69068 14.3434 4.73494 14.5099L0.95494 18.2899C0.861211 18.3828 0.786817 18.4935 0.736048 18.6153C0.68528 18.7372 0.659142 18.8679 0.659142 18.9999C0.659142 19.1319 0.68528 19.2626 0.736048 19.3845C0.786817 19.5063 0.861211 19.6169 0.95494 19.7099C1.0479 19.8036 1.1585 19.878 1.28036 19.9288C1.40222 19.9795 1.53293 20.0057 1.66494 20.0057C1.79695 20.0057 1.92766 19.9795 2.04952 19.9288C2.17138 19.878 2.28198 19.8036 2.37494 19.7099L6.15494 15.9299C6.32141 15.9741 6.4927 15.9977 6.66494 15.9999H8.66494C9.19452 15.9977 9.70159 15.7855 10.0749 15.4099L20.0749 5.40989C20.4474 5.03516 20.6565 4.52826 20.6565 3.99989C20.6565 3.47151 20.4474 2.96461 20.0749 2.58989Z" fill="white"/>
</svg>
