<svg width="18" height="18" viewBox="0 0 18 18" fill="none" xmlns="http://www.w3.org/2000/svg">
<path d="M3.99835 5C4.49281 5 4.97615 4.85338 5.38728 4.57867C5.7984 4.30397 6.11883 3.91352 6.30805 3.45671C6.49727 2.99989 6.54678 2.49723 6.45032 2.01228C6.35385 1.52732 6.11575 1.08187 5.76612 0.732234C5.41649 0.382603 4.97103 0.144501 4.48608 0.0480379C4.00113 -0.0484251 3.49846 0.00108321 3.04164 0.190302C2.58483 0.379521 2.19438 0.699953 1.91968 1.11108C1.64497 1.5222 1.49835 2.00555 1.49835 2.5C1.49835 3.16304 1.76174 3.79893 2.23059 4.26777C2.69943 4.73661 3.33531 5 3.99835 5ZM8.99835 12C9.49281 12 9.97615 11.8534 10.3873 11.5787C10.7984 11.304 11.1188 10.9135 11.3081 10.4567C11.4973 9.99989 11.5468 9.49723 11.4503 9.01227C11.3539 8.52732 11.1158 8.08187 10.7661 7.73223C10.4165 7.3826 9.97103 7.1445 9.48608 7.04804C9.00113 6.95157 8.49846 7.00108 8.04164 7.1903C7.58483 7.37952 7.19438 7.69995 6.91968 8.11108C6.64497 8.5222 6.49835 9.00555 6.49835 9.5C6.49835 10.163 6.76174 10.7989 7.23059 11.2678C7.69943 11.7366 8.33531 12 8.99835 12ZM13.9984 5C14.4928 5 14.9762 4.85338 15.3873 4.57867C15.7984 4.30397 16.1188 3.91352 16.3081 3.45671C16.4973 2.99989 16.5468 2.49723 16.4503 2.01228C16.3539 1.52732 16.1157 1.08187 15.7661 0.732234C15.4165 0.382603 14.971 0.144501 14.4861 0.0480379C14.0011 -0.0484251 13.4985 0.00108321 13.0416 0.190302C12.5848 0.379521 12.1944 0.699953 11.9197 1.11108C11.645 1.5222 11.4984 2.00555 11.4984 2.5C11.4984 3.16304 11.7617 3.79893 12.2306 4.26777C12.6994 4.73661 13.3353 5 13.9984 5ZM16.7184 6.93C15.9679 6.27674 14.9917 5.94295 13.9984 6C13.3882 6.00054 12.785 6.13003 12.2284 6.38C12.9765 7.14396 13.4239 8.15228 13.4882 9.21965C13.5525 10.287 13.2294 11.3417 12.5784 12.19C13.3286 12.7478 13.9381 13.4732 14.3582 14.3083C14.7784 15.1434 14.9976 16.0651 14.9984 17C14.9987 17.3414 14.9378 17.6801 14.8184 18H15.9984C16.25 18.0121 16.5016 17.9742 16.7387 17.8887C16.9757 17.8031 17.1934 17.6714 17.3793 17.5013C17.5652 17.3312 17.7156 17.126 17.8219 16.8975C17.9281 16.669 17.9881 16.4218 17.9984 16.17V9.5C17.9263 8.50833 17.4664 7.58498 16.7184 6.93ZM4.50835 9.23C4.56902 8.16161 5.01697 7.15195 5.76835 6.39C5.21247 6.13659 4.60926 6.00368 3.99835 6C3.0039 5.93415 2.02398 6.26581 1.27394 6.9221C0.523892 7.57838 0.0650902 8.5056 -0.00164795 9.5V16.17C0.00861657 16.4218 0.0686002 16.669 0.174847 16.8975C0.281094 17.126 0.431503 17.3312 0.617409 17.5013C0.803316 17.6714 1.02104 17.8031 1.25805 17.8887C1.49506 17.9742 1.74666 18.0121 1.99835 18H3.17835C3.05894 17.6801 2.99797 17.3414 2.99835 17C3.00068 16.0668 3.22063 15.1471 3.64073 14.3138C4.06083 13.4806 4.66949 12.7568 5.41835 12.2C4.76485 11.3531 4.44144 10.2976 4.50835 9.23ZM8.99835 13C7.93749 13 6.92007 13.4214 6.16992 14.1716C5.41978 14.9217 4.99835 15.9391 4.99835 17C4.99835 17.2652 5.10371 17.5196 5.29125 17.7071C5.47878 17.8946 5.73314 18 5.99835 18H11.9984C12.2636 18 12.5179 17.8946 12.7055 17.7071C12.893 17.5196 12.9984 17.2652 12.9984 17C12.9984 15.9391 12.5769 14.9217 11.8268 14.1716C11.0766 13.4214 10.0592 13 8.99835 13Z" fill="white"/>
</svg>
