<svg width="16" height="19" viewBox="0 0 16 19" fill="none" xmlns="http://www.w3.org/2000/svg">
<path d="M2.14027 7.30703H0.783722V5.44178H2.05548C1.91983 5.14786 1.80678 4.8596 1.71635 4.57698C1.63722 4.29437 1.59765 4.01176 1.59765 3.72914C1.59765 2.83608 1.95374 2.1239 2.66593 1.59258C3.38942 1.06127 4.43509 0.795612 5.80294 0.795612C7.05774 0.795612 8.1995 1.01605 9.22822 1.45693C10.2569 1.89781 11.1896 2.47999 12.0261 3.20348C12.8739 3.92697 13.6426 4.71264 14.3322 5.56048H11.7378C10.9126 4.63351 10.0308 3.92132 9.09256 3.42392C8.15428 2.92652 7.16514 2.67782 6.12512 2.67782C5.40163 2.67782 4.84771 2.81347 4.46335 3.08478C4.079 3.34479 3.88682 3.70653 3.88682 4.17002C3.88682 4.40741 3.92073 4.63916 3.98856 4.86525C4.05639 5.08004 4.14117 5.27221 4.24291 5.44178H6.02338V7.30703H4.41248V15.9889H2.14027V7.30703ZM12.6365 2.05042C12.6365 1.68867 12.7552 1.3891 12.9926 1.15171C13.2413 0.903006 13.5409 0.778656 13.8913 0.778656C14.2531 0.778656 14.547 0.903006 14.7731 1.15171C15.0105 1.3891 15.1292 1.68867 15.1292 2.05042C15.1292 2.41216 15.0105 2.71739 14.7731 2.96609C14.547 3.20348 14.2531 3.32218 13.8913 3.32218C13.5409 3.32218 13.2413 3.20348 12.9926 2.96609C12.7552 2.71739 12.6365 2.41216 12.6365 2.05042Z" fill="white"/>
<path d="M11.3808 14.768C11.686 14.6889 11.9347 14.5872 12.1269 14.4628C12.3304 14.3272 12.4321 14.1463 12.4321 13.9202C12.4321 13.6489 12.3021 13.4397 12.0421 13.2928C11.7821 13.1458 11.3525 13.0723 10.7534 13.0723C10.0864 13.0723 9.57773 13.1967 9.22729 13.4454C8.88815 13.6828 8.71859 14.0106 8.71859 14.4289C8.71859 14.7115 8.78076 14.9885 8.90511 15.2598C9.04076 15.5198 9.27816 15.8137 9.6173 16.1415C9.96774 16.4694 10.4595 16.8707 11.0925 17.3455L9.6173 18.8546C8.97294 18.3233 8.41336 17.8203 7.93857 17.3455C7.46378 16.8707 7.09638 16.3902 6.83638 15.9041C6.57637 15.4067 6.44637 14.8698 6.44637 14.2932C6.44637 13.8637 6.5255 13.485 6.68377 13.1571C6.85334 12.818 7.07377 12.5241 7.34508 12.2754C7.1416 12.038 6.97203 11.7723 6.83638 11.4784C6.71203 11.1732 6.64985 10.8227 6.64985 10.4271C6.64985 10.0653 6.71203 9.76012 6.83638 9.51142C6.97203 9.25141 7.14725 9.04228 7.36204 8.88401C7.64465 8.65792 7.97814 8.49966 8.36249 8.40922C8.75815 8.30748 9.30077 8.25661 9.99035 8.25661H11.7199V7.30703H5.68331V5.44178H15.5861V7.30703H13.9922V10.1219H10.0582C9.74165 10.1219 9.52121 10.1388 9.39686 10.1727C9.28381 10.1953 9.18207 10.2406 9.09164 10.3084C8.94468 10.4214 8.8712 10.591 8.8712 10.8171C8.8712 11.0093 8.95033 11.2014 9.10859 11.3936C9.63991 11.258 10.2108 11.1901 10.8212 11.1901C11.7369 11.1901 12.4773 11.3201 13.0426 11.5801C13.6078 11.8288 14.0204 12.1567 14.2804 12.5636C14.5404 12.9593 14.6704 13.3889 14.6704 13.8524C14.6704 15.2428 13.7774 16.1472 11.9913 16.5655L11.3808 14.768Z" fill="white"/>
</svg>
