<svg width="21" height="20" viewBox="0 0 21 20" fill="none" xmlns="http://www.w3.org/2000/svg">
<path d="M17.665 0H8.665C7.86935 0 7.10629 0.316071 6.54368 0.87868C5.98107 1.44129 5.665 2.20435 5.665 3V16C5.665 16.2652 5.55964 16.5196 5.37211 16.7071C5.18457 16.8946 4.93022 17 4.665 17C4.39978 17 4.14543 16.8946 3.95789 16.7071C3.77036 16.5196 3.665 16.2652 3.665 16V6H2.665C2.13457 6 1.62586 6.21071 1.25079 6.58579C0.875715 6.96086 0.665001 7.46957 0.665001 8V17C0.665001 17.7956 0.981072 18.5587 1.54368 19.1213C2.10629 19.6839 2.86935 20 3.665 20H17.665C18.4606 20 19.2237 19.6839 19.7863 19.1213C20.3489 18.5587 20.665 17.7956 20.665 17V3C20.665 2.20435 20.3489 1.44129 19.7863 0.87868C19.2237 0.316071 18.4606 0 17.665 0ZM14.665 15H9.665C9.39978 15 9.14543 14.8946 8.95789 14.7071C8.77036 14.5196 8.665 14.2652 8.665 14C8.665 13.7348 8.77036 13.4804 8.95789 13.2929C9.14543 13.1054 9.39978 13 9.665 13H14.665C14.9302 13 15.1846 13.1054 15.3721 13.2929C15.5596 13.4804 15.665 13.7348 15.665 14C15.665 14.2652 15.5596 14.5196 15.3721 14.7071C15.1846 14.8946 14.9302 15 14.665 15ZM16.665 10H9.665C9.39978 10 9.14543 9.89464 8.95789 9.70711C8.77036 9.51957 8.665 9.26522 8.665 9C8.665 8.73478 8.77036 8.48043 8.95789 8.29289C9.14543 8.10536 9.39978 8 9.665 8H16.665C16.9302 8 17.1846 8.10536 17.3721 8.29289C17.5596 8.48043 17.665 8.73478 17.665 9C17.665 9.26522 17.5596 9.51957 17.3721 9.70711C17.1846 9.89464 16.9302 10 16.665 10ZM16.665 5H9.665C9.39978 5 9.14543 4.89464 8.95789 4.70711C8.77036 4.51957 8.665 4.26522 8.665 4C8.665 3.73478 8.77036 3.48043 8.95789 3.29289C9.14543 3.10536 9.39978 3 9.665 3H16.665C16.9302 3 17.1846 3.10536 17.3721 3.29289C17.5596 3.48043 17.665 3.73478 17.665 4C17.665 4.26522 17.5596 4.51957 17.3721 4.70711C17.1846 4.89464 16.9302 5 16.665 5Z" fill="white"/>
</svg>
