<svg width="21" height="16" viewBox="0 0 21 16" fill="none" xmlns="http://www.w3.org/2000/svg">
<path d="M1.26168 13.3C1.33631 14.0426 1.68503 14.7307 2.23976 15.2299C2.79448 15.7292 3.51538 16.0037 4.26168 16H16.4117C17.158 16.0037 17.8789 15.7292 18.4336 15.2299C18.9883 14.7307 19.3371 14.0426 19.4117 13.3L19.5417 12H1.13168L1.26168 13.3ZM20.0717 3C19.8702 2.63701 19.5607 2.34572 19.1862 2.16654C18.8117 1.98735 18.3908 1.92915 17.9817 2C17.5758 2.07195 17.2021 2.26754 16.9117 2.56L16.0517 3.41C15.9604 3.50354 15.8517 3.57828 15.7317 3.63C15.6108 3.67782 15.4817 3.7016 15.3517 3.7C15.2194 3.69945 15.0885 3.67265 14.9666 3.62116C14.8447 3.56966 14.7343 3.49449 14.6417 3.4L11.8617 0.600003C11.4883 0.236545 10.9878 0.0331726 10.4667 0.0331726C9.9456 0.0331726 9.44509 0.236545 9.07168 0.600003L6.07168 3.52C5.97223 3.61098 5.85541 3.6809 5.72824 3.72558C5.60107 3.77026 5.46619 3.78877 5.33168 3.78C5.06934 3.7789 4.81795 3.67475 4.63168 3.49L3.73168 2.59C3.45329 2.29189 3.0904 2.08602 2.69168 2C2.27956 1.92469 1.85419 1.98069 1.4756 2.16012C1.09702 2.33954 0.784334 2.63332 0.581684 3C0.379114 3.36559 0.291959 3.78394 0.331684 4.2L0.931684 10H19.7317L20.3317 4.2C20.369 3.78287 20.2783 3.36427 20.0717 3Z" fill="white"/>
</svg>
