<svg width="21" height="23" viewBox="0 0 21 23" fill="none" xmlns="http://www.w3.org/2000/svg">
<path id="Vector" d="M19.2797 1.68415C19.2519 1.52466 19.1934 1.3723 19.1076 1.23578C19.0219 1.09927 18.9105 0.981268 18.7798 0.888533C18.6492 0.795798 18.5018 0.730144 18.3462 0.695324C18.1906 0.660504 18.0297 0.657201 17.8728 0.685603L16.7934 0.882847L14.4405 5.07429L19.7042 4.12505L19.2797 1.68415ZM13.6886 1.4376L8.70389 2.33752L6.35102 6.50431L11.3357 5.61671L13.6886 1.4376ZM5.6112 2.89227L1.17228 3.68125C0.860522 3.73576 0.582052 3.91191 0.396261 4.17216C0.210471 4.4324 0.132066 4.75612 0.177767 5.07429L0.590126 7.53984L3.2462 7.05906L5.6112 2.89227ZM0.759921 8.77262V19.8676C0.759921 20.5215 1.01548 21.1486 1.47037 21.611C1.92527 22.0734 2.54224 22.3332 3.18556 22.3332H17.7394C18.3827 22.3332 18.9997 22.0734 19.4546 21.611C19.9095 21.1486 20.165 20.5215 20.165 19.8676V8.77262H0.759921ZM13.2035 16.5391L9.97735 19.0047C9.79716 19.142 9.5829 19.2257 9.35858 19.2462C9.13425 19.2668 8.90873 19.2235 8.70727 19.1211C8.50581 19.0187 8.33639 18.8613 8.21797 18.6666C8.09956 18.4718 8.03684 18.2474 8.03684 18.0184V13.0873C8.03684 12.8584 8.09956 12.634 8.21797 12.4392C8.33639 12.2445 8.50581 12.0871 8.70727 11.9847C8.90873 11.8823 9.13425 11.839 9.35858 11.8595C9.5829 11.8801 9.79716 11.9638 9.97735 12.1011L13.2035 14.5667C13.3541 14.6815 13.4763 14.8304 13.5605 15.0016C13.6447 15.1728 13.6886 15.3615 13.6886 15.5529C13.6886 15.7443 13.6447 15.933 13.5605 16.1042C13.4763 16.2754 13.3541 16.4243 13.2035 16.5391Z" fill="white"/>
</svg>
